<svg width="16" height="12" viewBox="0 0 16 12" fill="none" xmlns="http://www.w3.org/2000/svg">
<g clip-path="url(#clip0_2055_3)">
<path d="M0 4C0 2.11438 0 1.17157 0.585786 0.585786C1.17157 0 2.11438 0 4 0H12C13.8856 0 14.8284 0 15.4142 0.585786C16 1.17157 16 2.11438 16 4V8C16 9.88562 16 10.8284 15.4142 11.4142C14.8284 12 13.8856 12 12 12H4C2.11438 12 1.17157 12 0.585786 11.4142C0 10.8284 0 9.88562 0 8V4Z" fill="black"/>
<path d="M-1 2L7.02871 6.4604C7.63276 6.79598 8.36724 6.79598 8.97129 6.4604L17 2" stroke="white"/>
</g>
<defs>
<clipPath id="clip0_2055_3">
<rect width="16" height="12" fill="white"/>
</clipPath>
</defs>
</svg>
